<?xml version="1.0" encoding="utf-8"?>
<!-- Generator: Adobe Illustrator 20.1.0, SVG Export Plug-In . SVG Version: 6.00 Build 0)  -->
<svg version="1.1" id="Capa_1" xmlns="http://www.w3.org/2000/svg" xmlns:xlink="http://www.w3.org/1999/xlink" x="0px" y="0px"
	 viewBox="0 0 512 512" style="enable-background:new 0 0 512 512;" xml:space="preserve">
<style type="text/css">
	.st0{fill:#F15A24;}
</style>
<g>
	<path class="st0" d="M307.4,324.6c4.7,0,8.6-3.8,8.6-8.6c0-33.1-26.9-60-60-60c-4.7,0-8.6,3.8-8.6,8.6s3.8,8.6,8.6,8.6
		c23.6,0,42.9,19.2,42.9,42.9C298.9,320.7,302.7,324.6,307.4,324.6z"/>
	<path class="st0" d="M333.1,324.6c4.7,0,8.6-3.8,8.6-8.6c0-47.3-38.4-85.7-85.7-85.7c-18.9,0-34.3,15.4-34.3,34.3
		c0,4.7,3.8,8.6,8.6,8.6s8.6-3.8,8.6-8.6c0-9.5,7.7-17.1,17.1-17.1c37.8,0,68.6,30.8,68.6,68.6C324.6,320.7,328.4,324.6,333.1,324.6
		z"/>
	<path class="st0" d="M256,281.7c-4.7,0-8.6,3.8-8.6,8.6s3.8,8.6,8.6,8.6c9.5,0,17.1,7.7,17.1,17.1c0,4.7,3.8,8.6,8.6,8.6
		c4.7,0,8.6-3.8,8.6-8.6C290.3,297.1,274.9,281.7,256,281.7z"/>
	<path class="st0" d="M358.9,324.6c4.7,0,8.6-3.8,8.6-8.6c0-61.4-50-111.4-111.4-111.4h-17.1c-23.6,0-42.9,19.2-42.9,42.9
		c0,4.7,3.8,8.6,8.6,8.6s8.6-3.8,8.6-8.6c0-14.2,11.5-25.7,25.7-25.7H256c52,0,94.3,42.3,94.3,94.3
		C350.3,320.7,354.1,324.6,358.9,324.6z"/>
	<path class="st0" d="M136,127.4c4.7,0,8.6-3.8,8.6-8.6h42.9c13.9,0,26.2-6.8,34.1-17.1h240.2c14.2,0,25.7-11.5,25.7-25.7
		s-11.5-25.7-25.7-25.7H221.5c-7.8-10.3-20.1-17.1-34.1-17.1h-42.9c0-4.7-3.8-8.6-8.6-8.6s-8.6,3.8-8.6,8.6v85.7
		C127.4,123.6,131.3,127.4,136,127.4z M461.7,67.4c4.7,0,8.6,3.8,8.6,8.6c0,4.7-3.8,8.6-8.6,8.6H229.4c0.6-2.8,0.9-5.6,0.9-8.6
		c0-2.9-0.3-5.8-0.9-8.6C229.4,67.4,461.7,67.4,461.7,67.4z M187.4,50.3c8.6,0,16.2,4.3,20.9,10.8l1.2,2.1c1.1,2,2,4,2.6,6
		c0,0.1,0.1,0.3,0.1,0.4c0.6,2.1,0.9,4.2,0.9,6.3c0,2.1-0.3,4.3-0.9,6.3c0,0.2-0.1,0.3-0.1,0.4c-0.6,2-1.4,4.1-2.6,6l-1.2,2.1
		c-4.7,6.5-12.3,10.8-20.9,10.8h-42.9V84.6c6.2,0,16.7,0,34.3,0c4.7,0,8.6-3.8,8.6-8.6s-3.8-8.6-8.6-8.6c-17.6,0-28.1,0-34.3,0V50.3
		H187.4z"/>
	<path class="st0" d="M110.3,127.4c4.7,0,8.6-3.8,8.6-8.6V33.2c0-4.7-3.8-8.6-8.6-8.6s-8.6,3.8-8.6,8.6v85.7
		C101.7,123.6,105.6,127.4,110.3,127.4z"/>
	<path class="st0" d="M110.3,238.9c4.7,0,8.6-3.8,8.6-8.6v-85.7c0-4.7-3.8-8.6-8.6-8.6s-8.6,3.8-8.6,8.6v85.7
		C101.7,235,105.6,238.9,110.3,238.9z"/>
	<path class="st0" d="M84.6,144.6c-4.7,0-8.6,3.8-8.6,8.6v85.7c0,4.7,3.8,8.6,8.6,8.6s8.6-3.8,8.6-8.6v-85.7
		C93.2,148.4,89.3,144.6,84.6,144.6z"/>
	<path class="st0" d="M41.7,93.2c-4.7,0-8.6,3.8-8.6,8.6s3.8,8.6,8.6,8.6H76v19.6c0,4.7,3.8,8.6,8.6,8.6s8.6-3.8,8.6-8.6V33.2
		c0-4.7-3.8-8.6-8.6-8.6S76,28.4,76,33.2v8.6H41.7c-4.7,0-8.6,3.8-8.6,8.6s3.8,8.6,8.6,8.6H76v8.6H41.7c-4.7,0-8.6,3.8-8.6,8.6
		c0,4.7,3.8,8.6,8.6,8.6H76v8.6C76,93.2,41.7,93.2,41.7,93.2z"/>
	<path class="st0" d="M435.6,418.9c-4.4-48-44.7-85.7-93.8-85.7h-60c-4.7,0-8.6,3.8-8.6,8.6s3.8,8.6,8.6,8.6h60
		c39.6,0,72.4,30.1,76.6,68.6h-8.7c-4.2-33.8-33.1-60-68-60h-51.4c-4.7,0-8.6,3.8-8.6,8.6s3.8,8.6,8.6,8.6h51.4
		c25.4,0,46.5,18.6,50.7,42.9h-8.7c-4-19.5-21.3-34.3-42-34.3h-42.9c-4.7,0-8.6,3.8-8.6,8.6s3.8,8.6,8.6,8.6h42.9
		c11.2,0,20.6,7.2,24.1,17.1h-15.6c0-4.7-3.8-8.6-8.6-8.6h-42.9c-4.7,0-8.6,3.8-8.6,8.6h-8.7c-3-126.1-72.1-171.4-137-171.4H136
		c-47.3,0-85.7,38.4-85.7,85.7V376c0,4.7,3.8,8.6,8.6,8.6s8.6-3.8,8.6-8.6v-42.9c0-37.8,30.8-68.6,68.6-68.6h8.6
		c85.3,0,117.6,78.1,119.9,154.3h-8.6c-2.4-91.4-43.6-145.7-111.3-145.7c-33.1,0-60,26.9-60,60v8.6c0,4.7,3.8,8.6,8.6,8.6
		c4.7,0,8.6-3.8,8.6-8.6v-8.6c0-23.6,19.2-42.9,42.9-42.9c79.6,0,92.8,84,94.1,128.6h-8.6c-2.5-98.9-47.6-120-85.6-120
		c-14.2,0-25.7,11.5-25.7,25.7c0,4.7,3.8,8.6,8.6,8.6c4.7,0,8.6-3.8,8.6-8.6c0-4.7,3.8-8.6,8.6-8.6c44.3,0,66.7,33.7,68.4,102.9
		h-8.4c0-4.7-3.8-8.6-8.6-8.6h-42.9c-4.7,0-8.6,3.8-8.6,8.6H129c3.5-10,13-17.1,24.1-17.1H196c4.7,0,8.6-3.8,8.6-8.6
		s-3.8-8.6-8.6-8.6h-42.9c-20.7,0-38,14.8-42,34.3h-8.7c4.1-24.3,25.2-42.9,50.7-42.9h34.3c4.7,0,8.6-3.8,8.6-8.6s-3.8-8.6-8.6-8.6
		h-34.3c-34.9,0-63.7,26.2-68,60h-8.7c4.3-38.5,37-68.6,76.6-68.6h17.1c4.7,0,8.6-3.8,8.6-8.6s-3.8-8.6-8.6-8.6h-17.1
		c-49.1,0-89.5,37.7-93.8,85.7H0L26.1,458c12.3,18.4,32.8,29.4,55,29.4h349.8c22.1,0,42.7-11,55-29.4l26.1-39.1H435.6z M471.6,448.5
		c-9.1,13.6-24.3,21.8-40.7,21.8H81.1c-16.4,0-31.6-8.1-40.7-21.8L32,436h206.8h42.9H480L471.6,448.5z"/>
</g>
</svg>
