<?xml version="1.0" encoding="utf-8"?>
<!-- Generator: Adobe Illustrator 20.1.0, SVG Export Plug-In . SVG Version: 6.00 Build 0)  -->
<svg version="1.1" id="Capa_1" xmlns="http://www.w3.org/2000/svg" xmlns:xlink="http://www.w3.org/1999/xlink" x="0px" y="0px"
	 viewBox="0 0 512 512" style="enable-background:new 0 0 512 512;" xml:space="preserve">
<style type="text/css">
	.st0{fill:#F15A24;}
	.st1{fill:#F15A24;stroke:#F15A26;stroke-miterlimit:10;}
</style>
<g>
	<path class="st0" d="M8.6,264.6c4.7,0,8.5-3.8,8.5-8.5c0-131.8,107.2-239,239-239c54,0,105.6,18.1,147.7,51.2h-45.3
		c-4.7,0-8.5,3.8-8.5,8.5c0,4.7,3.8,8.5,8.5,8.5h67.6c0.6,0.1,1.1,0.1,1.6,0h7.6V8.5c0-4.7-3.8-8.5-8.5-8.5c-4.7,0-8.5,3.8-8.5,8.5
		v49.6C372.5,20.6,315.7,0,256.1,0C114.9,0,0,114.9,0,256C0,260.8,3.9,264.6,8.6,264.6z"/>
	<path class="st0" d="M256.1,68.3C152.6,68.3,68.3,152.5,68.3,256s84.2,187.8,187.8,187.8S443.8,359.6,443.8,256
		S359.6,68.3,256.1,68.3z M256.1,426.7C162,426.7,85.4,350.2,85.4,256S162,85.3,256.1,85.3S426.8,161.9,426.8,256
		S350.2,426.7,256.1,426.7z"/>
	<path class="st0" d="M256.1,128c4.7,0,8.5-3.8,8.5-8.5v-17.1c0-4.7-3.8-8.5-8.5-8.5s-8.5,3.8-8.5,8.5v17.1
		C247.6,124.2,251.4,128,256.1,128z"/>
	<path class="st0" d="M256.1,384.1c-4.7,0-8.5,3.8-8.5,8.5v17.1c0,4.7,3.8,8.5,8.5,8.5s8.5-3.8,8.5-8.5v-17.1
		C264.6,387.9,260.8,384.1,256.1,384.1z"/>
	<path class="st0" d="M392.6,264.6h17.1c4.7,0,8.5-3.8,8.5-8.5c0-4.7-3.8-8.5-8.5-8.5h-17.1c-4.7,0-8.5,3.8-8.5,8.5
		C384.1,260.8,387.9,264.6,392.6,264.6z"/>
	<path class="st0" d="M119.5,247.5h-17.1c-4.7,0-8.5,3.8-8.5,8.5c0,4.7,3.8,8.5,8.5,8.5h17.1c4.7,0,8.5-3.8,8.5-8.5
		C128.1,251.3,124.2,247.5,119.5,247.5z"/>
	<path class="st0" d="M264.6,214.6v-43.9c0-4.7-3.8-8.5-8.5-8.5s-8.5,3.8-8.5,8.5v43.9c-14.7,3.8-25.6,17.1-25.6,32.9
		c0,6.3,1.8,12.2,4.8,17.2l-70.6,70.6c-3.3,3.3-3.3,8.7,0,12.1c1.7,1.7,3.8,2.5,6,2.5c2.2,0,4.4-0.8,6-2.5l70.6-70.6
		c5.1,3,10.9,4.8,17.2,4.8c18.8,0,34.1-15.3,34.1-34.1C290.2,231.6,279.3,218.4,264.6,214.6z M256.1,264.6
		c-9.4,0-17.1-7.7-17.1-17.1c0-9.4,7.7-17.1,17.1-17.1c9.4,0,17.1,7.7,17.1,17.1C273.2,256.9,265.5,264.6,256.1,264.6z"/>
	<path class="st0" d="M101.5,449.4c-2.8,3.7-2,9.1,1.8,11.9c1.5,1.1,3.2,1.6,5,1.6c2.6,0,5.2-1.1,6.9-3.4c2.7-3.7,2-9.1-1.8-11.9
		C109.7,444.8,104.3,445.6,101.5,449.4z"/>
	<path class="st0" d="M61.7,394.9c-2.7-3.7-8.1-4.7-11.9-2c-3.8,2.8-4.7,8.1-2,11.9c1.7,2.3,4.3,3.6,7,3.6c1.7,0,3.4-0.5,5-1.6
		C63.6,404.1,64.5,398.7,61.7,394.9z"/>
	<path class="st0" d="M65.1,413.5c-3.5,3.1-3.8,8.5-0.7,12c1.6,2,4,2.9,6.4,2.9c2,0,4-0.7,5.6-2.1c3.5-3.2,3.8-8.5,0.7-12
		C74,410.7,68.7,410.4,65.1,413.5z"/>
	<path class="st0" d="M94.4,431.9c-3.4-3.2-8.9-2.9-12,0.5c-3.2,3.5-3,8.9,0.5,12.1c1.6,1.5,3.7,2.2,5.7,2.2c2.3,0,4.6-0.9,6.3-2.7
		C98.1,440.5,97.9,435.1,94.4,431.9C94.4,431.9,94.4,431.9,94.4,431.9z"/>
	<path class="st0" d="M48.4,374.2C48.3,374.2,48.3,374.2,48.4,374.2c-2.4-4.1-7.6-5.5-11.7-3.2c-4.1,2.3-5.5,7.5-3.2,11.6
		c1.5,2.7,4.4,4.3,7.4,4.3c1.4,0,2.9-0.3,4.2-1.1C49.3,383.5,50.7,378.3,48.4,374.2z"/>
	<path class="st1" d="M503.1,274.1c0.2,0,0.3,0,0.3,0c4.6,0,8.4-3.7,8.5-8.2c0.2-4.8-3.5-8.7-8.2-8.9c-4.7-0.2-8.7,3.5-8.9,8.2
		C494.7,270,498.4,274,503.1,274.1z"/>
	<path class="st0" d="M10.8,290.1c4.7-0.5,8.1-4.7,7.6-9.4c-0.5-4.7-4.7-8.1-9.4-7.6c-4.7,0.4-8.1,4.7-7.6,9.3
		c0.4,4.4,4.2,7.7,8.4,7.7C10.2,290.1,10.5,290.1,10.8,290.1z"/>
	<path class="st0" d="M15.6,315.2c4.6-0.9,7.6-5.5,6.6-10.1c-0.9-4.6-5.5-7.6-10.1-6.6c-4.6,0.9-7.6,5.5-6.6,10.1
		c0.8,4,4.4,6.7,8.3,6.7C14.4,315.4,15,315.4,15.6,315.2z"/>
	<path class="st0" d="M37.3,352.1c-1.9-4.3-6.9-6.2-11.3-4.4c-4.3,1.9-6.2,6.9-4.4,11.3c1.5,3.2,4.5,5.1,7.9,5.1
		c1.1,0,2.3-0.3,3.4-0.8C37.2,361.4,39.1,356.4,37.3,352.1z"/>
	<path class="st0" d="M28.5,329c-1.4-4.5-6.2-7-10.7-5.5c-4.5,1.5-7,6.2-5.5,10.8c1.2,3.6,4.5,5.9,8.1,5.9c0.9,0,1.8-0.1,2.6-0.3
		C27.4,338.3,29.9,333.4,28.5,329z"/>
	<path class="st0" d="M251.5,494.9c-4.7-0.1-8.6,3.7-8.7,8.4c-0.1,4.8,3.7,8.6,8.4,8.7c0.1,0,0.2,0,0.2,0c4.7,0,8.4-3.7,8.5-8.4
		C259.9,498.9,256.2,495,251.5,494.9z"/>
	<path class="st1" d="M445,402.3c-2.9,3.7-2.2,9.1,1.5,11.9c1.6,1.2,3.4,1.8,5.3,1.8c2.5,0,5-1.1,6.7-3.3c2.9-3.7,2.2-9-1.5-11.9
		S447.9,398.6,445,402.3z"/>
	<path class="st0" d="M391.2,453c-3.8,2.6-4.9,8-2.1,11.9c1.6,2.4,4.3,3.7,7,3.7c1.7,0,3.3-0.4,4.9-1.5c3.8-2.6,4.9-8,2.1-11.9
		C400.4,451.3,395.1,450.4,391.2,453z"/>
	<path class="st0" d="M410.8,438c-3.6,3.1-4,8.4-0.9,12c1.7,2,4.1,3,6.5,3c2,0,3.9-0.7,5.5-2c3.6-3.1,4-8.4,0.9-12
		C419.8,435.4,414.4,434.9,410.8,438z"/>
	<path class="st1" d="M470.8,379.3c-4-2.5-9.3-1.2-11.8,2.7c-2.5,4-1.3,9.3,2.7,11.8c1.5,0.9,3,1.3,4.5,1.3c2.8,0,5.6-1.4,7.3-4
		C476,387.1,474.8,381.8,470.8,379.3z"/>
	<path class="st0" d="M428.8,421c-3.3,3.4-3.2,8.8,0.3,12c1.6,1.6,3.8,2.4,5.9,2.4c2.2,0,4.5-0.9,6.1-2.6c3.2-3.4,3.2-8.8-0.3-12
		S432.1,417.6,428.8,421z"/>
	<path class="st1" d="M502.3,282.6c-4.6-0.7-9,2.7-9.6,7.3c-0.7,4.7,2.6,9,7.3,9.6c0.4,0.1,0.9,0.1,1.2,0.1c4.2,0,7.9-3.1,8.4-7.3
		C510.3,287.6,507,283.3,502.3,282.6z"/>
	<path class="st1" d="M498.3,307.8c-4.6-1.1-9.2,1.7-10.4,6.2c-1.1,4.6,1.7,9.2,6.2,10.4c0.7,0.2,1.4,0.3,2,0.3
		c3.8,0,7.3-2.6,8.3-6.5C505.6,313.7,502.8,309,498.3,307.8z"/>
	<path class="st0" d="M134,461.4c-4.1-2.4-9.3-1.1-11.7,3c-2.5,4-1.1,9.3,2.9,11.7c1.4,0.9,2.9,1.2,4.4,1.2c2.9,0,5.7-1.5,7.3-4.2
		C139.4,469.1,138,463.9,134,461.4z"/>
	<path class="st1" d="M491.6,332.6c-4.4-1.6-9.4,0.7-10.9,5.1c-1.6,4.4,0.6,9.3,5,10.9c0.9,0.3,2,0.5,2.9,0.5c3.5,0,6.8-2.1,8-5.6
		C498.3,339.1,496.1,334.2,491.6,332.6z"/>
	<path class="st1" d="M482.4,356.5c-4.2-2-9.4-0.3-11.4,3.9c-2,4.3-0.3,9.4,3.9,11.4c1.2,0.6,2.5,0.9,3.8,0.9c3.2,0,6.2-1.8,7.7-4.8
		C488.4,363.7,486.7,358.5,482.4,356.5z"/>
	<path class="st0" d="M226.8,493.2c-4.7-0.6-8.9,2.7-9.5,7.4c-0.6,4.7,2.7,9,7.4,9.5v0.1c0.3,0,0.7,0,1,0c4.3,0,7.9-3.2,8.4-7.5
		C234.8,498,231.5,493.8,226.8,493.2z"/>
	<path class="st0" d="M178.8,482.2c-4.4-1.5-9.3,0.8-10.8,5.3c-1.5,4.4,0.9,9.3,5.3,10.8c0.9,0.3,1.9,0.4,2.8,0.4
		c3.5,0,6.8-2.2,8-5.7C185.6,488.5,183.2,483.7,178.8,482.2z"/>
	<path class="st0" d="M202.5,489c-4.6-1-9.1,1.8-10.2,6.4c-1,4.6,1.9,9.2,6.4,10.2c0.7,0.2,1.3,0.2,2,0.2c3.8,0,7.4-2.6,8.3-6.6
		C210,494.6,207.1,490,202.5,489z"/>
	<path class="st0" d="M155.9,473c-4.4-2-9.4-0.2-11.4,4.1c-2,4.3-0.2,9.4,4.1,11.4c1.2,0.5,2.4,0.8,3.6,0.8c3.2,0,6.3-1.8,7.8-4.9
		C161.9,480,160.2,475,155.9,473z"/>
	<path class="st0" d="M300.6,490.8c-4.6,0.9-7.7,5.4-6.8,10c0.8,4.1,4.4,6.9,8.4,6.9c0.5,0,1,0,1.5-0.1c4.6-0.9,7.7-5.4,6.8-10
		C309.8,493,305.2,490,300.6,490.8z"/>
	<path class="st0" d="M324.6,485c-4.5,1.3-7.1,6.1-5.7,10.6c1.1,3.7,4.5,6.1,8.2,6.1c0.8,0,1.6-0.1,2.5-0.3
		c4.5-1.4,7.1-6.2,5.7-10.7C333.9,486.2,329.1,483.7,324.6,485z"/>
	<path class="st0" d="M347.9,476.7c-4.4,1.8-6.4,6.8-4.6,11.2c1.4,3.2,4.5,5.2,7.9,5.2c1.1,0,2.2-0.2,3.3-0.6
		c4.4-1.9,6.4-6.8,4.6-11.2C357.2,476.9,352.3,474.9,347.9,476.7z"/>
	<path class="st0" d="M276.1,494.2c-4.7,0.4-8.2,4.5-7.8,9.2c0.3,4.4,4.1,7.9,8.5,7.9c0.2,0,0.4,0,0.7,0v-0.1
		c4.7-0.3,8.2-4.4,7.8-9.1C285,497.3,280.8,493.8,276.1,494.2z"/>
	<path class="st0" d="M370.2,466c-4.2,2.2-5.7,7.4-3.4,11.5c1.5,2.9,4.4,4.5,7.5,4.5c1.4,0,2.7-0.3,4-1.1c4.2-2.2,5.7-7.4,3.4-11.5
		C379.5,465.2,374.3,463.7,370.2,466z"/>
</g>
</svg>
